<mxfile host="app.diagrams.net" modified="2020-09-05T14:00:46.651Z" agent="5.0 (X11; Linux x86_64) AppleWebKit/537.36 (KHTML, like Gecko) Chrome/85.0.4183.83 Safari/537.36" etag="uOgK648KDHB1SbQk-u9a" version="13.6.6" type="github">
  <diagram name="Page-1" id="42789a77-a242-8287-6e28-9cd8cfd52e62">
    <mxGraphModel dx="1021" dy="536" grid="1" gridSize="10" guides="1" tooltips="1" connect="1" arrows="1" fold="1" page="1" pageScale="1" pageWidth="1100" pageHeight="850" background="#ffffff" math="0" shadow="0">
      <root>
        <mxCell id="0" />
        <mxCell id="1" parent="0" />
        <mxCell id="1ea317790d2ca983-12" style="edgeStyle=none;rounded=1;html=1;labelBackgroundColor=none;startArrow=none;startFill=0;startSize=5;endArrow=classicThin;endFill=1;endSize=5;jettySize=auto;orthogonalLoop=1;strokeColor=#B3B3B3;strokeWidth=1;fontFamily=Verdana;fontSize=12" parent="1" source="1ea317790d2ca983-1" target="1ea317790d2ca983-2" edge="1">
          <mxGeometry relative="1" as="geometry">
            <Array as="points">
              <mxPoint x="540" y="160" />
            </Array>
          </mxGeometry>
        </mxCell>
        <mxCell id="1ea317790d2ca983-13" value="12 km" style="edgeStyle=none;rounded=1;html=1;labelBackgroundColor=none;startArrow=none;startFill=0;startSize=5;endArrow=classicThin;endFill=1;endSize=5;jettySize=auto;orthogonalLoop=1;strokeWidth=4;fontFamily=Verdana;fontSize=12;strokeColor=#FF0000;" parent="1" source="1ea317790d2ca983-1" target="1ea317790d2ca983-9" edge="1">
          <mxGeometry x="0.2204" y="-22" relative="1" as="geometry">
            <Array as="points">
              <mxPoint x="440" y="160" />
            </Array>
            <mxPoint x="4" y="-3" as="offset" />
          </mxGeometry>
        </mxCell>
        <mxCell id="1ea317790d2ca983-1" value="A" style="ellipse;whiteSpace=wrap;html=1;rounded=0;shadow=1;comic=0;labelBackgroundColor=none;strokeWidth=1;fontFamily=Verdana;fontSize=12;align=center;fillColor=#99FFCC;" parent="1" vertex="1">
          <mxGeometry x="450" y="80" width="90" height="60" as="geometry" />
        </mxCell>
        <mxCell id="1ea317790d2ca983-21" value="24 km" style="edgeStyle=none;rounded=1;html=1;labelBackgroundColor=none;startArrow=none;startFill=0;startSize=5;endArrow=classicThin;endFill=1;endSize=5;jettySize=auto;orthogonalLoop=1;strokeColor=#B3B3B3;strokeWidth=1;fontFamily=Verdana;fontSize=12" parent="1" source="1ea317790d2ca983-2" target="1ea317790d2ca983-7" edge="1">
          <mxGeometry x="-0.2473" y="19" relative="1" as="geometry">
            <mxPoint as="offset" />
          </mxGeometry>
        </mxCell>
        <mxCell id="1ea317790d2ca983-22" value="7 km" style="edgeStyle=none;rounded=1;html=1;labelBackgroundColor=none;startArrow=none;startFill=0;startSize=5;endArrow=classicThin;endFill=1;endSize=5;jettySize=auto;orthogonalLoop=1;strokeWidth=4;fontFamily=Verdana;fontSize=12;strokeColor=#FF0000;" parent="1" source="1ea317790d2ca983-2" target="1ea317790d2ca983-6" edge="1">
          <mxGeometry x="0.2549" y="18" relative="1" as="geometry">
            <mxPoint as="offset" />
          </mxGeometry>
        </mxCell>
        <mxCell id="1ea317790d2ca983-2" value="&lt;span&gt;C&lt;/span&gt;" style="ellipse;whiteSpace=wrap;html=1;rounded=0;shadow=1;comic=0;labelBackgroundColor=none;strokeWidth=1;fontFamily=Verdana;fontSize=12;align=center;strokeColor=#FF0000;" parent="1" vertex="1">
          <mxGeometry x="535" y="170" width="75" height="50" as="geometry" />
        </mxCell>
        <mxCell id="1ea317790d2ca983-23" value="29 km" style="edgeStyle=none;rounded=1;html=1;labelBackgroundColor=none;startArrow=none;startFill=0;startSize=5;endArrow=classicThin;endFill=1;endSize=5;jettySize=auto;orthogonalLoop=1;strokeWidth=4;fontFamily=Verdana;fontSize=12;strokeColor=#FF0000;" parent="1" source="1ea317790d2ca983-6" target="1ea317790d2ca983-8" edge="1">
          <mxGeometry x="-0.2552" y="28" relative="1" as="geometry">
            <mxPoint as="offset" />
          </mxGeometry>
        </mxCell>
        <mxCell id="scct95LkSLDtFlE_dbPg-5" value="" style="edgeStyle=none;orthogonalLoop=1;jettySize=auto;html=1;labelBackgroundColor=none;startFill=0;startSize=5;endArrow=classicThin;endFill=1;endSize=5;strokeColor=#B3B3B3;strokeWidth=1;fontFamily=Verdana;fontSize=12;" edge="1" parent="1" source="1ea317790d2ca983-6" target="scct95LkSLDtFlE_dbPg-4">
          <mxGeometry relative="1" as="geometry" />
        </mxCell>
        <mxCell id="scct95LkSLDtFlE_dbPg-10" value="9 km" style="edgeLabel;html=1;align=center;verticalAlign=middle;resizable=0;points=[];fontSize=12;fontFamily=Verdana;" vertex="1" connectable="0" parent="scct95LkSLDtFlE_dbPg-5">
          <mxGeometry x="-0.375" y="-4" relative="1" as="geometry">
            <mxPoint x="9.88" y="-18" as="offset" />
          </mxGeometry>
        </mxCell>
        <mxCell id="1ea317790d2ca983-6" value="&lt;span&gt;E&lt;/span&gt;" style="ellipse;whiteSpace=wrap;html=1;rounded=0;shadow=1;comic=0;labelBackgroundColor=none;strokeWidth=1;fontFamily=Verdana;fontSize=12;align=center;strokeColor=#FF0000;" parent="1" vertex="1">
          <mxGeometry x="630" y="270" width="75" height="50" as="geometry" />
        </mxCell>
        <mxCell id="1ea317790d2ca983-24" value="9 km" style="edgeStyle=none;rounded=1;html=1;labelBackgroundColor=none;startArrow=none;startFill=0;startSize=5;endArrow=classicThin;endFill=1;endSize=5;jettySize=auto;orthogonalLoop=1;strokeColor=#B3B3B3;strokeWidth=1;fontFamily=Verdana;fontSize=12" parent="1" source="1ea317790d2ca983-7" target="1ea317790d2ca983-8" edge="1">
          <mxGeometry x="-0.1046" y="-22" relative="1" as="geometry">
            <mxPoint as="offset" />
          </mxGeometry>
        </mxCell>
        <mxCell id="1ea317790d2ca983-7" value="&lt;span&gt;D&lt;/span&gt;" style="ellipse;whiteSpace=wrap;html=1;rounded=0;shadow=1;comic=0;labelBackgroundColor=none;strokeWidth=1;fontFamily=Verdana;fontSize=12;align=center;" parent="1" vertex="1">
          <mxGeometry x="450" y="270" width="75" height="50" as="geometry" />
        </mxCell>
        <mxCell id="1ea317790d2ca983-8" value="G" style="ellipse;whiteSpace=wrap;html=1;rounded=0;shadow=1;comic=0;labelBackgroundColor=none;strokeWidth=1;fontFamily=Verdana;fontSize=12;align=center;fillColor=#d5e8d4;strokeColor=#82b366;" parent="1" vertex="1">
          <mxGeometry x="535" y="380" width="75" height="50" as="geometry" />
        </mxCell>
        <mxCell id="scct95LkSLDtFlE_dbPg-3" value="" style="edgeStyle=none;orthogonalLoop=1;jettySize=auto;html=1;labelBackgroundColor=none;startFill=0;startSize=5;endArrow=classicThin;endFill=1;endSize=5;strokeWidth=4;fontFamily=Verdana;fontSize=12;strokeColor=#FF0000;" edge="1" parent="1" source="1ea317790d2ca983-9" target="1ea317790d2ca983-2">
          <mxGeometry relative="1" as="geometry" />
        </mxCell>
        <mxCell id="1ea317790d2ca983-9" value="B" style="ellipse;whiteSpace=wrap;html=1;rounded=0;shadow=1;comic=0;labelBackgroundColor=none;strokeWidth=1;fontFamily=Verdana;fontSize=12;align=center;strokeColor=#FF0000;" parent="1" vertex="1">
          <mxGeometry x="360" y="170" width="75" height="50" as="geometry" />
        </mxCell>
        <mxCell id="scct95LkSLDtFlE_dbPg-2" style="rounded=1;html=1;labelBackgroundColor=none;startArrow=none;startFill=0;startSize=5;endArrow=classicThin;endFill=1;endSize=5;jettySize=auto;orthogonalLoop=1;strokeColor=#B3B3B3;strokeWidth=1;fontFamily=Verdana;fontSize=12;exitX=1;exitY=1;exitDx=0;exitDy=0;entryX=0.5;entryY=0;entryDx=0;entryDy=0;" edge="1" parent="1" source="1ea317790d2ca983-9" target="1ea317790d2ca983-7">
          <mxGeometry relative="1" as="geometry">
            <mxPoint x="538.5358591086349" y="140.00384578409796" as="sourcePoint" />
            <mxPoint x="619.5971765740887" y="188.29760569575728" as="targetPoint" />
          </mxGeometry>
        </mxCell>
        <mxCell id="scct95LkSLDtFlE_dbPg-9" value="38 km" style="edgeLabel;html=1;align=center;verticalAlign=middle;resizable=0;points=[];fontSize=12;fontFamily=Verdana;" vertex="1" connectable="0" parent="scct95LkSLDtFlE_dbPg-2">
          <mxGeometry x="-0.2316" y="2" relative="1" as="geometry">
            <mxPoint x="-14.61" y="17.01" as="offset" />
          </mxGeometry>
        </mxCell>
        <mxCell id="scct95LkSLDtFlE_dbPg-4" value="&lt;span&gt;F&lt;/span&gt;" style="ellipse;whiteSpace=wrap;html=1;rounded=0;shadow=1;comic=0;labelBackgroundColor=none;strokeWidth=1;fontFamily=Verdana;fontSize=12;align=center;" vertex="1" parent="1">
          <mxGeometry x="785" y="270" width="75" height="50" as="geometry" />
        </mxCell>
        <mxCell id="scct95LkSLDtFlE_dbPg-7" value="14 km" style="text;html=1;align=center;verticalAlign=middle;resizable=0;points=[];autosize=1;fontSize=12;fontFamily=Verdana;" vertex="1" parent="1">
          <mxGeometry x="525" y="140" width="50" height="20" as="geometry" />
        </mxCell>
        <mxCell id="scct95LkSLDtFlE_dbPg-8" value="9 km" style="text;html=1;align=center;verticalAlign=middle;resizable=0;points=[];autosize=1;fontSize=12;fontFamily=Verdana;" vertex="1" parent="1">
          <mxGeometry x="467.5" y="170" width="40" height="20" as="geometry" />
        </mxCell>
        <mxCell id="scct95LkSLDtFlE_dbPg-11" value="Start" style="text;html=1;align=center;verticalAlign=middle;resizable=0;points=[];autosize=1;fontSize=12;fontFamily=Verdana;" vertex="1" parent="1">
          <mxGeometry x="540" y="90" width="40" height="20" as="geometry" />
        </mxCell>
        <mxCell id="scct95LkSLDtFlE_dbPg-12" value="Goal" style="text;html=1;align=center;verticalAlign=middle;resizable=0;points=[];autosize=1;fontSize=12;fontFamily=Verdana;" vertex="1" parent="1">
          <mxGeometry x="610" y="400" width="40" height="20" as="geometry" />
        </mxCell>
        <mxCell id="scct95LkSLDtFlE_dbPg-16" value="" style="edgeStyle=none;orthogonalLoop=1;jettySize=auto;html=1;labelBackgroundColor=none;startFill=0;startSize=5;endArrow=classicThin;endFill=1;endSize=5;strokeColor=#FF0000;strokeWidth=4;fontFamily=Verdana;fontSize=12;" edge="1" parent="1" source="scct95LkSLDtFlE_dbPg-13" target="scct95LkSLDtFlE_dbPg-15">
          <mxGeometry relative="1" as="geometry" />
        </mxCell>
        <mxCell id="scct95LkSLDtFlE_dbPg-13" value="Total cost" style="text;html=1;strokeColor=none;fillColor=none;align=center;verticalAlign=middle;whiteSpace=wrap;rounded=0;labelBackgroundColor=none;fontFamily=Verdana;fontSize=12;" vertex="1" parent="1">
          <mxGeometry x="680" y="160" width="40" height="20" as="geometry" />
        </mxCell>
        <mxCell id="scct95LkSLDtFlE_dbPg-15" value="&lt;b&gt;57 km&lt;/b&gt;" style="whiteSpace=wrap;html=1;labelBackgroundColor=none;strokeColor=#d6b656;fillColor=#fff2cc;fontFamily=Verdana;fontSize=12;" vertex="1" parent="1">
          <mxGeometry x="760" y="140" width="120" height="60" as="geometry" />
        </mxCell>
      </root>
    </mxGraphModel>
  </diagram>
</mxfile>
